<?xml version="1.0" encoding="utf-8"?>
<?xml-stylesheet type="text/xsl" href="rss1.xsl"?>
<rss version="2.0" xmlns:atom="http://www.w3.org/2005/Atom" xmlns:content="http://purl.org/rss/1.0/modules/content/" xmlns:dc="http://purl.org/dc/elements/1.1/" xmlns:media="http://search.yahoo.com/mrss/">
<channel>
 <title>Getty</title>
 <link>http://www.gettyimg.com/</link>
 <atom:link href="http://www.gettyimg.com/" rel="self" type="application/rss+xml" />

 
                <item>
                <title><![CDATA[【Albums (lossless)】FLAC - Hyphen Hyphen - C'est La vie 24bit/44.1khz]]></title>
                <link><![CDATA[https://sharemania.us/threads/hyphen-hyphen-cest-la-vie-24bit-44-1khz.241724/]]></link>
                <description><![CDATA[<article>
<blockquote class="messageText SelectQuoteContainer ugc baseHtml">
Hyphen Hyphen - C'est La vie (2023)<br>
<ul>
<li>Date: 20/01/2023 by <a href="https://www.qobuz.com/fr-fr/label/parlophone-france-2/download-streaming-albums/337537" target="_blank" class="externalLink" rel="nofollow">Parlophone (France)</a></li>
<li>Artist: <a href="https://www.qobuz.com/fr-fr/interpreter/hyphen-hyphen/567958" target="_blank" class="externalLink" rel="nofollow">Hyphen Hyphen</a></li>
<li>Type: <a href="https://www.qobuz.com/fr-fr/genre/alternatif-et-inde/download-streaming-albums" target="_blank" class="externalLink" rel="nofollow">Alternatif et Indé</a></li>
<li>Format: 24-Bit/44.1 kHz</li>
</ul><img src="https://static.qobuz.com/images/covers/4a/m0/w226u2je1m04a_600.jpg" class="bbCodeImage LbImage" alt="[​IMG]" data-url="https://static.qobuz.com/images/covers/4a/m0/w226u2je1m04a_600.jpg" style=""> <br>
<br>
Download Link:<br>
<div class="bbCodeBlock bbCodeVfcHH HiddenContent">
<div class="attribution type">Hidden Content:</div>
<blockquote>You must reply before you can see the hidden data contained here.</blockquote>
</div>
<div class="messageTextEndMarker">&nbsp;</div>
</blockquote>
</article>]]></description>
                <author><![CDATA[pinbfv]]></author>
                </item>

                
                <item>
                <title><![CDATA[【MASTER &amp; MASTER RIP】MASTER - Max Barskix - По секрету [Master 1080]]]></title>
                <link><![CDATA[https://sharemania.us/threads/max-barskix-%D0%9F%D0%BE-%D1%81%D0%B5%D0%BA%D1%80%D0%B5%D1%82%D1%83-master-1080.241726/]]></link>
                <description><![CDATA[<article>
<blockquote class="messageText SelectQuoteContainer ugc baseHtml">
<div style="text-align: center"><img src="https://i.ibb.co/F7W22dn/20240408153751.gif" class="bbCodeImage LbImage" alt="[​IMG]" data-url="https://i.ibb.co/F7W22dn/20240408153751.gif" style=""><br>
​</div>
<div class="ToggleTriggerAnchor bbCodeSpoilerContainer">
<button type="button" class="button bbCodeSpoilerButton ToggleTrigger Tooltip JsOnly" data-target="> .SpoilerTarget"><span>Spoiler: <span class="SpoilerTitle">MASTER</span></span></button>
<div class="SpoilerTarget bbCodeSpoilerText">
<div class="bbCodeBlock bbCodeCode">
<div class="type">Code:</div>
<pre>General
Complete name                            : Max Barskix - По секрету.mp4
Format                                   : MPEG-4
Format profile                           : Base Media / Version 2
Codec ID                                 : mp42 (mp42/mp41)
File size                                : 1.03 GiB
Duration                                 : 4 min 10 s
Overall bit rate mode                    : Variable
Overall bit rate                         : 35.4 Mb/s
Frame rate                               : 25.000 FPS
Movie name                               : MB_PO_SECRETU_MASTER
Encoded date                             : 2020-09-02 08:15:58 UTC
Tagged date                              : 2020-09-02 08:16:05 UTC
TIM                                      : 00:00:00:00
TSC                                      : 25000
TSZ                                      : 1000

Video
ID                                       : 1
Format                                   : AVC
Format/Info                              : Advanced Video Codec
Format profile                           : Main@L4.1
Format settings                          : CABAC / 4 Ref Frames
Format settings, CABAC                   : Yes
Format settings, Reference frames        : 4 frames
Codec ID                                 : avc1
Codec ID/Info                            : Advanced Video Coding
Duration                                 : 4 min 10 s
Bit rate                                 : 35.0 Mb/s
Width                                    : 1 440 pixels
Height                                   : 1 080 pixels
Display aspect ratio                     : 4:3
Frame rate mode                          : Constant
Frame rate                               : 25.000 FPS
Color space                              : YUV
Chroma subsampling                       : 4:2:0
Bit depth                                : 8 bits
Scan type                                : Progressive
Bits/(Pixel*Frame)                       : 0.901
Stream size                              : 1.02 GiB (99%)
Language                                 : English
Encoded date                             : 2020-09-02 08:15:58 UTC
Tagged date                              : 2020-09-02 08:15:58 UTC
Color range                              : Limited
Color primaries                          : BT.709
Transfer characteristics                 : BT.709
Matrix coefficients                      : BT.709
Codec configuration box                  : avcC

Audio
ID                                       : 2
Format                                   : AAC LC
Format/Info                              : Advanced Audio Codec Low Complexity
Codec ID                                 : 2 / 40 / mp4a-40-2
Duration                                 : 4 min 10 s
Source duration                          : 4 min 11 s
Bit rate mode                            : Variable
Bit rate                                 : 317 kb/s
Maximum bit rate                         : 400 kb/s
Channel(s)                               : 2 channels
Channel layout                           : L R
Sampling rate                            : 48.0 kHz
Frame rate                               : 46.875 FPS (1024 SPF)
Compression mode                         : Lossy
Stream size                              : 9.50 MiB (1%)
Source stream size                       : 9.50 MiB (1%)
Language                                 : English
Encoded date                             : 2020-09-02 08:15:58 UTC
Tagged date                              : 2020-09-02 08:15:58 UTC

</pre>
</div><div style="text-align: center">​</div></div>
</div><div style="text-align: center"><br>
<div class="bbCodeBlock bbCodeVfcHH HiddenContent">
<div class="attribution type">Hidden Content:</div>
<blockquote>You must reply before you can see the hidden data contained here.</blockquote>
</div></div>
<div class="messageTextEndMarker">&nbsp;</div>
</blockquote>
</article>]]></description>
                <author><![CDATA[fstambuk]]></author>
                </item>

                
                <item>
                <title><![CDATA[【MASTER &amp; MASTER RIP】MASTER - Max Barskih - Just Fly [Master 2K]]]></title>
                <link><![CDATA[https://sharemania.us/threads/max-barskih-just-fly-master-2k.241725/]]></link>
                <description><![CDATA[<article>
<blockquote class="messageText SelectQuoteContainer ugc baseHtml">
<div style="text-align: center"><img src="https://i.ibb.co/jRjqtqc/20240408152923.gif" class="bbCodeImage LbImage" alt="[​IMG]" data-url="https://i.ibb.co/jRjqtqc/20240408152923.gif" style=""><br>
​</div>
<div class="ToggleTriggerAnchor bbCodeSpoilerContainer">
<button type="button" class="button bbCodeSpoilerButton ToggleTrigger Tooltip JsOnly" data-target="> .SpoilerTarget"><span>Spoiler: <span class="SpoilerTitle">MASTER</span></span></button>
<div class="SpoilerTarget bbCodeSpoilerText">
<div class="bbCodeBlock bbCodeCode">
<div class="type">Code:</div>
<pre>General
Complete name                            : Max Barskih - Just Fly.mp4
Format                                   : MPEG-4
Format profile                           : Base Media / Version 2
Codec ID                                 : mp42 (mp42/mp41/isom/avc1)
File size                                : 863 MiB
Duration                                 : 5 min 8 s
Overall bit rate mode                    : Variable
Overall bit rate                         : 23.5 Mb/s
Frame rate                               : 25.000 FPS
Encoded date                             : 2021-08-22 11:29:10 UTC
Tagged date                              : 2021-08-22 11:29:10 UTC

Video
ID                                       : 1
Format                                   : AVC
Format/Info                              : Advanced Video Codec
Format profile                           : High@L5.2
Format settings                          : CABAC / 5 Ref Frames
Format settings, CABAC                   : Yes
Format settings, Reference frames        : 5 frames
Codec ID                                 : avc1
Codec ID/Info                            : Advanced Video Coding
Duration                                 : 5 min 8 s
Bit rate                                 : 23.2 Mb/s
Width                                    : 4 096 pixels
Height                                   : 1 536 pixels
Display aspect ratio                     : 2.667
Frame rate mode                          : Constant
Frame rate                               : 25.000 FPS
Color space                              : YUV
Chroma subsampling                       : 4:2:0
Bit depth                                : 8 bits
Scan type                                : Progressive
Bits/(Pixel*Frame)                       : 0.148
Stream size                              : 854 MiB (99%)
Writing library                          : x264 core 164 r10 ae03d92
Encoding settings                        : cabac=1 / ref=5 / deblock=1:0:0 / analyse=0x3:0x113 / me=hex / subme=8 / psy=1 / psy_rd=1.00:0.00 / mixed_ref=1 / me_range=16 / chroma_me=1 / trellis=2 / 8x8dct=1 / cqm=0 / deadzone=21,11 / fast_pskip=1 / chroma_qp_offset=-2 / threads=48 / lookahead_threads=8 / sliced_threads=0 / nr=0 / decimate=1 / interlaced=0 / bluray_compat=0 / stitchable=1 / constrained_intra=0 / bframes=3 / b_pyramid=2 / b_adapt=2 / b_bias=0 / direct=3 / weightb=1 / open_gop=0 / weightp=2 / keyint=infinite / keyint_min=25 / scenecut=40 / intra_refresh=0 / rc_lookahead=50 / rc=crf / mbtree=1 / crf=20.0 / qcomp=0.60 / qpmin=5 / qpmax=69 / qpstep=4 / vbv_maxrate=24200 / vbv_bufsize=66000 / crf_max=0.0 / nal_hrd=none / filler=0 / ip_ratio=1.40 / aq=1:1.00
Encoded date                             : 2021-08-22 11:29:10 UTC
Tagged date                              : 2021-08-22 11:29:10 UTC
Color range                              : Limited
Color primaries                          : BT.709
Transfer characteristics                 : BT.709
Matrix coefficients                      : BT.709
Codec configuration box                  : avcC

Audio
ID                                       : 2
Format                                   : AAC LC
Format/Info                              : Advanced Audio Codec Low Complexity
Codec ID                                 : 2 / 40 / mp4a-40-2
Duration                                 : 5 min 8 s
Bit rate mode                            : Variable
Bit rate                                 : 253 kb/s
Channel(s)                               : 2 channels
Channel layout                           : L R
Sampling rate                            : 48.0 kHz
Frame rate                               : 46.875 FPS (1024 SPF)
Compression mode                         : Lossy
Stream size                              : 9.32 MiB (1%)
Encoded date                             : 2021-08-22 11:29:10 UTC
Tagged date                              : 2021-08-22 11:29:10 UTC

</pre>
</div><div style="text-align: center">​</div></div>
</div><div style="text-align: center"><br>
<div class="bbCodeBlock bbCodeVfcHH HiddenContent">
<div class="attribution type">Hidden Content:</div>
<blockquote>You must reply before you can see the hidden data contained here.</blockquote>
</div></div>
<div class="messageTextEndMarker">&nbsp;</div>
</blockquote>
</article>]]></description>
                <author><![CDATA[fstambuk]]></author>
                </item>

                
                <item>
                <title><![CDATA[【MASTER &amp; MASTER RIP】MASTER - Rondé - Run [Master 1080]]]></title>
                <link><![CDATA[https://sharemania.us/threads/rond%C3%A9-run-master-1080.241723/]]></link>
                <description><![CDATA[<article>
<blockquote class="messageText SelectQuoteContainer ugc baseHtml">
<div style="text-align: center"><img src="https://i.ibb.co/SJnvb43/20240408152305.gif" class="bbCodeImage LbImage" alt="[​IMG]" data-url="https://i.ibb.co/SJnvb43/20240408152305.gif" style=""><br>
​</div>
<div class="ToggleTriggerAnchor bbCodeSpoilerContainer">
<button type="button" class="button bbCodeSpoilerButton ToggleTrigger Tooltip JsOnly" data-target="> .SpoilerTarget"><span>Spoiler: <span class="SpoilerTitle">MASTER</span></span></button>
<div class="SpoilerTarget bbCodeSpoilerText">
<div class="bbCodeBlock bbCodeCode">
<div class="type">Code:</div>
<pre>General
Complete name                            : Rondé - Run.mp4
Format                                   : MPEG-4
Format profile                           : Base Media / Version 2
Codec ID                                 : mp42 (mp42/mp41)
File size                                : 760 MiB
Duration                                 : 3 min 19 s
Overall bit rate mode                    : Variable
Overall bit rate                         : 32.0 Mb/s
Frame rate                               : 25.000 FPS
Encoded date                             : 2015-03-03 16:14:48 UTC
Tagged date                              : 2015-03-03 16:15:08 UTC
TIM                                      : 00:00:00:00
TSC                                      : 25
TSZ                                      : 1

Video
ID                                       : 1
Format                                   : AVC
Format/Info                              : Advanced Video Codec
Format profile                           : Main@L4.2
Format settings                          : CABAC / 3 Ref Frames
Format settings, CABAC                   : Yes
Format settings, Reference frames        : 3 frames
Codec ID                                 : avc1
Codec ID/Info                            : Advanced Video Coding
Duration                                 : 3 min 19 s
Bit rate                                 : 31.8 Mb/s
Width                                    : 1 920 pixels
Height                                   : 1 080 pixels
Display aspect ratio                     : 16:9
Frame rate mode                          : Constant
Frame rate                               : 25.000 FPS
Standard                                 : PAL
Color space                              : YUV
Chroma subsampling                       : 4:2:0
Bit depth                                : 8 bits
Scan type                                : Progressive
Bits/(Pixel*Frame)                       : 0.614
Stream size                              : 756 MiB (99%)
Language                                 : English
Encoded date                             : 2015-03-03 16:14:48 UTC
Tagged date                              : 2015-03-03 16:14:48 UTC
Color range                              : Limited
Color primaries                          : BT.709
Transfer characteristics                 : BT.709
Matrix coefficients                      : BT.709
Codec configuration box                  : avcC

Audio
ID                                       : 2
Format                                   : AAC LC
Format/Info                              : Advanced Audio Codec Low Complexity
Codec ID                                 : 2 / 40 / mp4a-40-2
Duration                                 : 3 min 19 s
Source duration                          : 3 min 19 s
Bit rate mode                            : Variable
Bit rate                                 : 192 kb/s
Maximum bit rate                         : 273 kb/s
Channel(s)                               : 2 channels
Channel layout                           : L R
Sampling rate                            : 48.0 kHz
Frame rate                               : 46.875 FPS (1024 SPF)
Compression mode                         : Lossy
Stream size                              : 4.50 MiB (1%)
Source stream size                       : 4.50 MiB (1%)
Language                                 : English
Encoded date                             : 2015-03-03 16:14:48 UTC
Tagged date                              : 2015-03-03 16:14:48 UTC</pre>
</div><div style="text-align: center">​</div></div>
</div><div style="text-align: center"><br>
<div class="bbCodeBlock bbCodeVfcHH HiddenContent">
<div class="attribution type">Hidden Content:</div>
<blockquote>You must reply before you can see the hidden data contained here.</blockquote>
</div></div>
<div class="messageTextEndMarker">&nbsp;</div>
</blockquote>
</article>]]></description>
                <author><![CDATA[fstambuk]]></author>
                </item>

                </channel></rss>